<svg xmlns="http://www.w3.org/2000/svg" width="100%" height="100%" viewBox="0 0 260 50">
  <path fill="#020203" fill-rule="evenodd" d="M257.760476,25.5687311 C258.031039,25.1347143 258.301603,24.3771578 258.301603,24.1618403 C258.301603,23.5125062 257.814588,22.7549496 257.219348,22.6997111 C256.353545,22.6455999 256.082981,22.1597266 255.27129,22.1597266 C254.567825,22.1597266 254.351374,22.3209329 253.377345,24.3771578 C252.186864,26.9215106 248.181395,29.0859579 240.876177,39.476432 C240.497388,40.0164165 240.280937,40.1798774 239.95626,40.1798774 C239.792795,40.1798774 239.792795,39.8552103 239.792795,39.6376383 C239.792795,39.476432 240.497388,36.8238568 240.876177,35.8498556 C242.661897,31.413866 243.960602,28.815402 244.71818,27.4085112 C246.070999,24.9193969 247.586155,23.1878391 248.181395,22.5385049 C249.101312,21.5633763 249.373003,20.589375 249.373003,19.9952794 C249.373003,19.7235961 249.210664,19.291834 249.101312,19.0201508 C248.884861,18.5331501 248.181395,18.2084831 246.936802,18.2084831 C246.125111,18.2084831 245.475759,18.3708166 245.042857,18.7495949 C244.555842,19.1824843 244.609955,19.291834 244.177053,19.9400409 C241.796093,23.5666173 240.5515,26.1628267 238.926991,29.8976256 C238.008202,32.0079617 236.491918,35.6886493 236.275467,37.2567463 C236.113129,38.4483196 235.626115,38.8270979 235.626115,40.5045445 C235.626115,41.0997675 235.788453,41.8032129 236.006031,42.0737688 C236.709496,42.9395477 239.252795,44.5640104 239.902148,44.5640104 C240.389162,44.5640104 241.471417,44.4546607 241.904319,43.9676601 C242.661897,43.1559924 243.094799,43.2101036 244.231166,41.5867681 C245.529871,39.746988 246.990915,37.9060805 249.210664,34.985204 C249.373003,34.7676319 249.425988,34.7676319 249.535341,34.7676319 C249.642439,34.7676319 249.697679,34.8769816 249.697679,34.985204 C249.697679,35.1464102 249.210664,36.0674276 249.210664,39.2599873 C249.210664,40.6127669 249.480101,41.7491017 250.129453,42.6148806 C250.832919,43.5888818 251.483399,43.8053266 252.240977,44.5087719 C252.89033,45.1039949 254.621937,45.2674558 255.054839,45.2674558 C256.082981,45.2674558 256.46177,44.3464384 256.46177,43.9676601 C256.46177,43.4265483 256.082981,43.04777 255.650079,42.7231029 C255.27129,42.452547 253.918472,41.7491017 253.756134,40.7751004 C253.647908,40.2339886 253.323232,39.4223209 253.323232,38.4483196 C253.323232,37.366096 253.647908,34.6594096 253.972585,33.5771859 C254.784275,30.8175157 255.812417,28.7612908 257.760476,25.5687311 M234.492002,22.6997111 C233.626198,22.6455999 233.355635,22.1597266 232.543944,22.1597266 C231.840478,22.1597266 231.624027,22.3209329 230.649998,24.3771578 C229.459518,26.9215106 225.455176,29.0859579 218.14883,39.476432 C217.770041,40.0164165 217.55359,40.1798774 217.228914,40.1798774 C217.066576,40.1798774 217.066576,39.8552103 217.066576,39.6376383 C217.066576,39.476432 217.770041,36.8238568 218.14883,35.8498556 C219.93455,31.413866 221.233256,28.815402 221.990834,27.4085112 C223.34478,24.9193969 224.858809,23.1878391 225.455176,22.5385049 C226.375093,21.5633763 226.645656,20.589375 226.645656,19.9952794 C226.645656,19.7235961 226.483318,19.291834 226.375093,19.0201508 C226.158642,18.5331501 225.455176,18.2084831 224.210583,18.2084831 C223.398892,18.2084831 222.748412,18.3708166 222.316638,18.7495949 C221.828496,19.1824843 221.882609,19.291834 221.450834,19.9400409 C219.068747,23.5666173 217.824154,26.1628267 216.200772,29.8976256 C215.280856,32.0079617 213.765699,35.6886493 213.549248,37.2567463 C213.38691,38.4483196 212.899896,38.8270979 212.899896,40.5045445 C212.899896,41.0997675 213.062234,41.8032129 213.278685,42.0737688 C213.98215,42.9395477 216.525448,44.5640104 217.174801,44.5640104 C217.661816,44.5640104 218.74407,44.4546607 219.176972,43.9676601 C219.93455,43.1559924 220.36858,43.2101036 221.50382,41.5867681 C222.803652,39.746988 224.264696,37.9060805 226.483318,34.985204 C226.645656,34.7676319 226.699769,34.7676319 226.807994,34.7676319 C226.91622,34.7676319 226.970333,34.8769816 226.970333,34.985204 C226.970333,35.1464102 226.483318,36.0674276 226.483318,39.2599873 C226.483318,40.6127669 226.753882,41.7491017 227.403234,42.6148806 C228.1067,43.5888818 228.756053,43.8053266 229.513631,44.5087719 C230.162984,45.1039949 231.894591,45.2674558 232.327493,45.2674558 C233.355635,45.2674558 233.734424,44.3464384 233.734424,43.9676601 C233.734424,43.4265483 233.355635,43.04777 232.922733,42.7231029 C232.543944,42.452547 231.191125,41.7491017 231.028787,40.7751004 C230.920562,40.2339886 230.595885,39.4223209 230.595885,38.4483196 C230.595885,37.366096 230.920562,34.6594096 231.245238,33.5771859 C232.056929,30.8175157 233.085071,28.7612908 235.033129,25.5687311 C235.30482,25.1347143 235.574257,24.3771578 235.574257,24.1618403 C235.574257,23.5125062 235.087242,22.7549496 234.492002,22.6997111 M194.502695,38.881209 C193.528666,39.8010991 192.284073,40.3963221 191.851171,40.3963221 C190.877142,40.3963221 190.659564,39.5846544 190.659564,38.9341929 C190.659564,37.366096 192.446411,34.1735363 194.719146,31.413866 C197.803571,27.6790671 201.809041,24.7018248 206.895637,21.9962658 C207.599103,21.6174875 208.410794,21.4562813 208.573132,21.4562813 C209.493048,21.4562813 209.817725,22.1597266 209.817725,22.5385049 C209.817725,22.863172 209.709499,23.1878391 209.547161,23.3490453 C208.951921,23.9453956 208.356681,24.7018248 207.977892,25.4052702 C205.218143,30.5469598 199.536306,34.1735363 194.502695,38.881209 M207.707328,39.6917495 C207.707328,38.0154301 208.086117,36.3920947 208.464906,34.8769816 C209.493048,30.7104206 212.361023,26.6509547 214.741983,23.4031565 C214.850208,23.2419503 214.959561,23.0243782 214.959561,22.8090608 C214.959561,22.6997111 214.959561,22.6455999 214.850208,22.4843937 C214.417307,21.8339322 213.605616,21.7809484 213.335052,21.7809484 C212.739812,21.7809484 212.252797,21.2928204 212.036347,20.7528359 C211.928121,20.4270415 211.495219,19.9400409 211.224656,19.6706123 C210.250626,18.6954837 209.168372,18.1002607 207.923779,18.1002607 C207.54499,18.1002607 207.112088,18.1543719 206.733299,18.2637216 C203.540648,19.1824843 200.725659,20.589375 198.074135,22.5385049 C196.450753,23.7278236 193.474553,25.8933982 190.281902,30.6551821 C187.630378,34.6064257 187.034011,36.877968 187.034011,38.6647643 C187.034011,40.7198619 187.955055,41.6408793 188.224491,41.857324 C190.768917,43.9135489 191.418269,44.2923272 192.013509,44.2923272 C192.22996,44.2923272 192.554637,44.1841048 192.879313,44.0758825 C194.773259,43.4265483 196.504866,42.6689918 199.318728,40.0164165 L202.240815,37.3119848 C202.837183,36.7167618 203.32307,36.3379835 203.540648,36.3379835 C203.757099,36.3379835 203.757099,36.3920947 203.757099,36.6085394 C203.757099,36.770873 203.540648,37.6907631 203.540648,39.3129712 C203.540648,40.8292116 203.757099,42.3984358 204.460564,43.9676601 C204.785241,44.6711055 205.975721,45.0498837 206.787412,45.0498837 C207.112088,45.0498837 207.490877,44.8875502 207.815554,44.833439 C208.73547,44.7252167 208.951921,44.1841048 208.951921,44.0758825 C208.951921,43.9676601 208.897808,43.8605651 208.843696,43.7512154 C208.032005,42.5066582 207.707328,41.0997675 207.707328,39.6917495 M187.687873,26.3262876 C187.687873,26.1087156 187.63376,25.8381597 187.471422,25.5687311 C187.03852,24.755936 186.929167,24.648841 185.684575,24.4865074 C184.874011,24.3771578 185.143447,24.0524907 184.061193,24.0524907 C182.383698,24.0524907 181.680233,25.4593814 181.463782,26.0557317 C179.461611,31.5750722 174.212676,34.6064257 170.478898,38.9341929 C169.503741,40.071655 168.150923,40.7198619 167.339232,40.7198619 C167.068668,40.7198619 166.852217,40.1257662 166.852217,39.8552103 C166.852217,38.6095258 167.393345,36.5533009 169.179065,33.0901853 C170.531883,30.4387374 172.85873,28.3284013 173.833887,25.6769534 C173.942112,25.3522863 173.996225,25.0806031 173.996225,24.8652857 C173.996225,24.755936 173.996225,24.7018248 173.779774,24.4865074 C173.075181,23.7830621 172.210505,23.4031565 171.289461,23.4031565 C170.478898,23.4031565 169.88253,23.6196012 169.179065,24.1618403 C168.583825,24.5947298 168.259148,25.0276192 168.042698,25.5687311 C165.661737,31.520961 160.737479,37.6366519 154.892177,40.5586557 C154.675726,40.666878 154.459275,40.7751004 154.296937,40.7751004 C154.080486,40.7751004 153.809922,40.4504333 153.809922,40.1798774 C155.487417,33.7936307 159.004744,27.7331783 162.956101,22.2127105 C163.497228,21.4562813 163.605454,20.589375 163.605454,20.3199465 C163.605454,19.7235961 163.605454,19.4530402 163.33489,19.291834 C162.793763,18.9671669 162.252635,18.8578172 161.657395,18.8578172 C159.70821,18.8578172 158.57297,20.0493905 158.356519,20.6434862 C157.543701,22.8090608 157.003701,23.0796167 155.54153,26.2721764 C154.12558,29.4173889 151.858482,32.3946312 150.722115,35.7168322 C148.575643,36.7483266 146.361531,40.2384979 144.341322,41.4785458 C144.070758,41.6408793 143.746082,41.6949905 143.421406,41.6949905 C142.934391,41.6949905 142.500362,41.5326569 142.339151,41.0456563 C142.121573,40.3410836 142.06746,39.6917495 142.06746,39.0435426 C142.06746,36.6626506 143.259067,34.6064257 144.124871,32.3867399 C147.317522,23.9453956 152.999359,16.69337 157.924744,8.73789896 C158.248293,8.19791446 158.465872,7.54858029 158.465872,6.84513493 C158.465872,6.30289579 158.357646,5.81702248 158.03297,5.32889453 C157.762406,4.95011625 157.167166,4.73479884 156.626039,4.73479884 C156.030799,4.73479884 155.59677,4.84189389 154.840319,4.84189389 C152.728795,4.84189389 152.404119,7.87324738 151.484202,9.44134432 C147.371635,16.4769252 142.555602,25.1347143 140.227627,31.1962939 C139.037147,34.2817586 137.90078,36.770873 137.90078,39.2599873 C137.90078,39.9093215 137.954893,40.5045445 138.063118,41.0997675 C138.604245,44.0758825 143.096729,45.2674558 143.475518,45.2674558 C146.353639,45.2674558 148.301697,43.3036708 150.14153,41.1099133 C150.194516,41.4774184 150.255392,41.8483055 150.346708,42.2361023 C150.454933,42.6689918 150.563159,42.7772141 150.779609,42.9395477 C152.078315,43.9135489 153.75581,44.5087719 155.325079,44.5087719 C155.54153,44.5087719 155.866206,44.3464384 156.190882,44.1841048 C158.031843,43.2642148 160.249337,41.9655464 161.819734,40.3963221 C161.982072,40.2339886 162.090297,40.1257662 162.198523,40.1257662 C162.360861,40.1257662 162.360861,40.2339886 162.360861,40.9374339 C162.360861,41.7491017 162.631425,42.5066582 164.904159,43.5888818 C165.71585,43.9676601 166.689879,44.1841048 167.663908,44.1841048 C171.939941,44.1841048 174.265661,40.0164165 177.026538,37.9601916 C177.242989,37.7989854 177.351214,37.7448742 177.45944,37.7448742 C177.621778,37.7448742 177.675891,37.9060805 177.675891,38.0695413 C177.675891,39.6376383 178.433469,41.6949905 179.028709,42.8854365 C180.165076,45.1581061 180.976767,45.8615515 181.572007,45.9709011 C182.329585,46.1321074 182.8166,46.4026633 183.628291,46.4026633 C184.439982,46.4026633 184.928124,45.9709011 184.928124,45.5368844 C184.928124,45.1039949 184.494095,44.6169943 184.170546,44.4546607 C184.061193,44.4005496 183.898855,44.2923272 183.683531,43.9676601 C182.438938,42.1278799 181.950796,40.2880998 181.950796,38.556542 C181.950796,35.8498556 183.087164,33.0901853 185.739815,28.6530684 C186.44328,27.4626224 187.687873,27.3544001 187.687873,26.3262876 M137.037231,25.0276192 C138.01126,23.3490453 138.660613,22.2668217 138.660613,20.6987247 C138.660613,20.3199465 138.227711,19.8318185 137.848922,19.6706123 C137.41602,19.5071514 136.387878,19.291834 135.846751,19.291834 C135.576187,19.291834 135.089173,19.398929 134.601031,19.5612626 C134.115143,19.7235961 133.84458,19.9952794 133.087002,20.8058198 C129.135645,25.0806031 125.185416,29.735292 120.802285,35.8498556 C120.530594,36.2286338 120.477608,36.2838723 120.423496,36.2838723 C120.31527,36.2838723 120.31527,36.2286338 120.31527,36.1745227 C120.31527,36.1204115 120.368256,36.0133164 120.802285,35.092299 C124.860739,26.4874938 129.135645,15.4476855 134.006918,8.73789896 C134.43982,8.14267597 134.548045,7.87324738 135.03506,7.27689706 C136.441991,5.54533925 137.578358,4.67956035 137.578358,3.27266963 C137.578358,2.56922427 137.470133,2.29866836 137.091344,1.91876277 C136.658442,1.48700063 136.063202,1.10822236 135.576187,1.10822236 C135.304496,1.10822236 134.980947,1 134.43982,1 C133.897565,1 133.356438,1.10822236 133.031762,1.75755654 C130.380238,7.06045234 127.349925,12.0398084 125.07719,16.5851476 C120.477608,25.7310646 116.526252,33.5242021 114.848757,40.7198619 C114.632306,41.6408793 114.361743,41.5867681 114.361743,42.1819911 C114.361743,42.3443247 114.415855,42.6148806 114.578193,42.7772141 C115.443997,43.642993 117.122619,44.2923272 117.392055,44.2923272 C118.149634,44.2923272 118.908339,43.9135489 119.448339,43.5888818 C119.718903,43.4265483 119.774143,43.3724371 120.043579,43.04777 C123.237358,39.3129712 126.971136,33.0360741 130.651929,28.815402 C131.029591,28.3825125 131.246041,28.220179 131.355394,28.220179 C131.40838,28.220179 131.462492,28.2742901 131.462492,28.3284013 C131.462492,28.4366237 131.40838,28.5989572 131.246041,28.9777355 C130.596689,30.5469598 129.947336,32.1702952 129.24387,34.5523145 C128.540405,36.9332065 128.215729,38.9341929 128.215729,40.6127669 C128.215729,43.2642148 129.081532,44.9957726 131.137816,45.7533291 C132.00362,46.0779962 132.383536,46.1321074 132.708213,46.1321074 C133.411678,46.1321074 133.952805,45.8615515 134.601031,45.6992179 C134.980947,45.5921229 135.466834,45.3204397 135.6303,44.9427887 C135.738525,44.6711055 135.900864,44.4546607 135.900864,44.2393433 C135.900864,44.0758825 135.738525,43.8605651 135.522074,43.8053266 C135.089173,43.6971042 134.493933,43.642993 134.169256,43.4806595 C133.356438,43.04777 132.815311,42.5066582 132.815311,39.9093215 C132.815311,36.2286338 134.169256,31.7926443 135.6303,28.3284013 C136.063202,27.3002889 136.279653,26.3262876 137.037231,25.0276192 M116.746085,16.2604805 C117.016648,15.6111463 117.124874,15.2864793 117.124874,15.0700345 C117.124874,14.8535898 116.962536,14.5830339 116.800197,14.312478 L116.042619,13.122032 C115.880281,12.8514761 115.66383,12.633904 115.447379,12.633904 C114.419237,12.633904 113.87811,12.4185866 113.661659,12.4185866 C113.389968,12.4185866 112.417066,13.4466991 112.09239,13.9878109 C111.117233,15.5570352 111.388924,15.502924 110.792557,16.4769252 C108.032808,20.9681533 102.188633,29.2482914 92.2307635,39.2058761 C91.3649599,40.071655 90.5532689,40.2880998 90.1203671,40.2880998 C89.9580289,40.2880998 89.8498034,40.1257662 89.8498034,39.476432 C89.8498034,38.2307476 89.9580289,37.2567463 90.0662544,36.4991897 C91.2026217,28.6530684 95.4775273,21.5092651 98.7254184,13.2843655 C98.8877566,12.9055873 99.212433,12.1480307 99.212433,11.9304587 C99.212433,11.5516804 99.1042075,10.848235 98.9418693,10.523568 C98.7254184,10.0918058 98.129051,9.87423378 97.6972766,9.71302755 C96.615022,9.2801381 96.4526838,9.06256605 96.1809928,9.06256605 C95.3693018,9.06256605 94.9364,9.8201226 94.5576109,10.523568 C94.3952727,10.848235 94.1788218,11.1199183 93.9623709,11.7151413 C91.6896362,17.9920383 88.8757743,24.1066018 86.8736033,30.4387374 C86.2242506,32.4960896 85.4125596,35.6345382 85.4125596,38.9883041 C85.4125596,40.5045445 85.5196577,42.0737688 85.6819959,42.3984358 C86.3865887,43.7512154 87.6311815,43.1018812 88.6593234,44.1299937 C89.146338,44.6169943 90.2285925,44.9427887 90.8779453,44.9427887 C91.7978617,44.9427887 92.8801163,44.5087719 93.3671308,44.0758825 C97.5879237,40.3963221 102.188633,35.0381878 105.976524,30.6551821 C106.138862,30.4928486 106.301201,30.3846262 106.409426,30.3846262 C106.571764,30.3846262 106.67999,30.4928486 106.67999,30.6551821 C106.67999,30.8716269 106.625877,31.0880716 106.517651,31.520961 C105.705961,34.7135207 105.651848,38.3942084 105.218946,42.1278799 C105.164833,42.5607694 105.11072,42.7231029 104.948382,42.9936588 C104.731931,43.3724371 104.677819,43.8053266 104.677819,44.1299937 C104.677819,44.833439 105.218946,44.8875502 105.651848,45.1581061 C106.409426,45.6462341 107.004666,46.0250123 107.545793,46.1862186 C108.141033,46.3496794 107.978695,46.5649968 108.790386,46.5649968 C109.223288,46.5649968 109.547964,46.4026633 109.547964,46.0250123 C109.547964,45.8615515 109.493852,45.5921229 109.493852,44.4005496 C109.493852,36.9332065 110.738444,30.0599591 113.389968,22.9161559 C114.256899,20.6434862 115.880281,18.5331501 116.746085,16.2604805 M34.7100595,39.0976538 C34.2771576,39.746988 34.1689322,39.9093215 33.7901431,40.071655 C33.5736921,40.1798774 33.3031285,40.5045445 32.7608739,40.5045445 C32.599663,40.5045445 32.4373248,40.5045445 32.2749866,40.3963221 C31.7879721,40.071655 31.1386193,39.0435426 30.9751538,38.6095258 C30.8128156,38.2307476 30.8128156,38.0154301 30.8128156,37.8519693 C30.8128156,31.520961 35.9005395,24.8111745 37.5780341,22.6997111 C37.8485978,22.3209329 38.3897251,22.0515043 38.606176,21.7809484 C38.8767396,21.4562813 39.201416,21.2387092 39.4178669,21.2387092 C39.6343178,21.2387092 39.796656,21.6174875 39.9589942,22.1597266 C40.013107,22.375044 40.1213324,22.6997111 40.3930234,22.970267 C40.5553616,23.1337279 40.6624597,23.1878391 40.7165724,23.5666173 C40.7706852,23.8371733 40.7706852,24.4865074 40.7706852,24.7018248 C40.7706852,30.1681815 37.8485978,34.3888537 34.7100595,39.0976538 M67.9364027,22.6997111 C67.070599,22.6455999 66.8000354,22.1597266 65.9883444,22.1597266 C65.284879,22.1597266 65.068428,22.3209329 64.0932716,24.3771578 C62.9027915,26.9215106 58.8984495,29.0859579 51.5932311,39.476432 C51.2144419,40.0164165 50.9968637,40.1798774 50.6721873,40.1798774 C50.5098491,40.1798774 50.5098491,39.8552103 50.5098491,39.6376383 C50.5098491,39.476432 51.2144419,36.8238568 51.5932311,35.8498556 C53.3789511,31.413866 54.6776566,28.815402 55.4352348,27.4085112 C56.7880531,24.9193969 58.3032095,23.1878391 58.8984495,22.5385049 C59.8183659,21.5633763 60.0889296,20.589375 60.0889296,19.9952794 C60.0889296,19.7235961 59.9265914,19.291834 59.8183659,19.0201508 C59.601915,18.5331501 58.8984495,18.2084831 57.6538568,18.2084831 C56.8421658,18.2084831 56.1928131,18.3708166 55.7599112,18.7495949 C55.2728967,19.1824843 55.3270094,19.291834 54.8941076,19.9400409 C54.2436274,20.9309519 53.6822079,21.8429508 53.1703916,22.7245121 C52.5334397,22.399845 51.5729388,22.2127105 50.5662165,22.2127105 C49.3216238,22.2127105 48.077031,22.375044 45.9125218,22.375044 C44.3421253,22.375044 43.6386598,20.7528359 43.1516453,19.398929 C42.9904344,18.9671669 42.8280962,18.8578172 42.394067,18.479039 C41.4741506,17.6673712 40.3930234,17.4509265 39.5260924,17.4509265 C37.1451323,17.4509265 34.8723977,19.9952794 33.1407903,22.4302825 C32.599663,23.1878391 32.599663,22.9161559 31.8420848,24.0524907 C29.3528992,27.7872895 27.13315,31.6832946 27.13315,36.1204115 C27.13315,37.4743183 27.3496009,39.0976538 27.9459683,40.6127669 C28.4329828,41.857324 29.9470119,43.04777 32.004423,44.0217713 C32.3290994,44.1841048 32.8161139,44.2923272 33.3031285,44.2923272 C35.197074,44.2923272 36.6581177,42.7231029 38.1732741,41.0997675 C41.6376162,37.4202071 43.5856744,32.3867399 44.9926054,26.5968435 C45.1008309,26.2180652 45.207929,26.1628267 45.6419582,26.1628267 C46.0207473,26.1628267 46.6701,26.1628267 47.7523546,26.0016205 C49.1592856,25.7840485 50.7285547,25.244064 51.8108093,25.0806031 C51.8423751,25.0760938 51.8626674,25.0715846 51.8908511,25.0670753 C51.11749,26.5754245 50.4230433,28.1051927 49.6440454,29.8976256 C48.724129,32.0079617 47.2089726,35.6886493 46.9925217,37.2567463 C46.8301835,38.4483196 46.3431689,38.8270979 46.3431689,40.5045445 C46.3431689,41.0997675 46.5055071,41.8032129 46.7219581,42.0737688 C47.4254235,42.9395477 49.9687218,44.5640104 50.6180746,44.5640104 C51.1050891,44.5640104 52.1873437,44.4546607 52.6213729,43.9676601 C53.3789511,43.1559924 53.8107256,43.2101036 54.9482203,41.5867681 C56.2469258,39.746988 57.7079695,37.9060805 59.9265914,34.985204 C60.0889296,34.7676319 60.1430423,34.7676319 60.2512678,34.7676319 C60.3594932,34.7676319 60.413606,34.8769816 60.413606,34.985204 C60.413606,35.1464102 59.9265914,36.0674276 59.9265914,39.2599873 C59.9265914,40.6127669 60.197155,41.7491017 60.8465078,42.6148806 C61.5499733,43.5888818 62.199326,43.8053266 62.9569042,44.5087719 C63.606257,45.1039949 65.3378643,45.2674558 65.7718935,45.2674558 C66.8000354,45.2674558 67.1788245,44.3464384 67.1788245,43.9676601 C67.1788245,43.4265483 66.8000354,43.04777 66.3671335,42.7231029 C65.9883444,42.452547 64.6343989,41.7491017 64.4720607,40.7751004 C64.3638352,40.2339886 64.0402862,39.4223209 64.0402862,38.4483196 C64.0402862,37.366096 64.3638352,34.6594096 64.6885116,33.5771859 C65.5002025,30.8175157 66.5294717,28.7612908 68.47753,25.5687311 C68.7480936,25.1347143 69.0186573,24.3771578 69.0186573,24.1618403 C69.0186573,23.5125062 68.5316427,22.7549496 67.9364027,22.6997111 M31.736114,9.87423378 C31.736114,9.60480519 31.680874,9.22602691 30.545634,8.46734306 C29.2458011,7.60156415 28.7587866,7.4944691 28.5423357,7.4944691 C23.8886409,7.4944691 16.9069715,9.92947228 13.1731931,9.92947228 C12.7402913,9.92947228 12.6320658,9.98358346 12.5779531,10.3623617 C12.4697277,10.9575847 12.199164,11.6057916 12.199164,12.4185866 C12.199164,13.1761432 12.6320658,12.8514761 12.794404,13.5008103 C12.9026295,13.8795885 13.1190804,14.1501444 13.606095,14.2583668 C14.1472223,14.3654618 14.8506878,14.4207003 15.5541532,14.4207003 C16.6364078,14.4207003 17.7197898,14.2583668 18.5855934,13.7161277 C18.9091425,13.5008103 19.0714806,13.3925879 19.5055098,13.2843655 C21.1288917,12.9055873 23.1310627,12.2551258 25.1332337,11.8763475 C25.4037973,11.8763475 25.4579101,11.8763475 25.4579101,12.0939195 C21.7241317,20.264708 20.6418772,22.6455999 16.5822951,34.3888537 C15.2294769,38.2848587 14.6342368,39.6376383 13.2814186,41.8032129 C11.603924,44.5087719 10.4675567,44.8875502 9.27707662,44.8875502 C8.73594932,44.8875502 7.2207929,43.642993 7.2207929,39.9634327 C7.2207929,36.7167618 7.49135655,37.8519693 7.92425838,36.1204115 C8.24893476,34.7676319 8.95240024,34.3888537 8.95240024,33.4700909 C8.95240024,32.4419784 7.97837111,31.520961 7.05845471,31.520961 C6.6796656,31.520961 6.19265104,31.3045163 5.37983275,31.3045163 C4.73160734,31.3045163 3.86580367,32.8207567 3.48588722,34.2817586 C3,36.2838723 3,38.0154301 3,39.0435426 C3,43.1559924 4.29757816,46.7284577 6.89611652,47.5389981 C8.1407093,47.9177764 9.11473843,49 10.5757821,49 C12.8485168,49 15.5541532,46.5649968 17.3398733,43.642993 C18.205677,42.2361023 19.6137353,39.3129712 20.4254262,36.7167618 C22.8604991,28.9236243 25.9449246,21.5092651 29.3551539,14.3654618 C30.3280557,12.3092369 31.736114,12.0939195 31.736114,9.87423378"/>
</svg>
