<svg width="0" height="0" style="position:absolute"><symbol viewBox="0 0 264 512" id="icon-facebook" xmlns="http://www.w3.org/2000/svg"><path d="M76.7 512V283H0v-91h76.7v-71.7C76.7 42.4 124.3 0 193.8 0c33.3 0 61.9 2.5 70.2 3.6V85h-48.2c-37.8 0-45.1 18-45.1 44.3V192H256l-11.7 91h-73.6v229"/></symbol><symbol viewBox="0 0 192 512" id="icon-next" xmlns="http://www.w3.org/2000/svg"><path d="M166.9 264.5l-117.8 116c-4.7 4.7-12.3 4.7-17 0l-7.1-7.1c-4.7-4.7-4.7-12.3 0-17L127.3 256 25.1 155.6c-4.7-4.7-4.7-12.3 0-17l7.1-7.1c4.7-4.7 12.3-4.7 17 0l117.8 116c4.6 4.7 4.6 12.3-.1 17z"/></symbol><symbol viewBox="0 0 192 512" id="icon-prev" xmlns="http://www.w3.org/2000/svg"><path d="M25.1 247.5l117.8-116c4.7-4.7 12.3-4.7 17 0l7.1 7.1c4.7 4.7 4.7 12.3 0 17L64.7 256l102.2 100.4c4.7 4.7 4.7 12.3 0 17l-7.1 7.1c-4.7 4.7-12.3 4.7-17 0L25 264.5c-4.6-4.7-4.6-12.3.1-17z"/></symbol><symbol viewBox="0 0 512 512" id="icon-twitter" xmlns="http://www.w3.org/2000/svg"><path d="M443.8 159.7c.3 4.2.3 8.4.3 12.6 0 128.1-97.5 275.7-275.7 275.7-54.9 0-105.9-15.9-148.8-43.5 7.8.9 15.3 1.2 23.4 1.2 45.3 0 87-15.3 120.3-41.4-42.6-.9-78.3-28.8-90.6-67.2 6 .9 12 1.5 18.3 1.5 8.7 0 17.4-1.2 25.5-3.3-44.4-9-77.7-48-77.7-95.1V199c12.9 7.2 27.9 11.7 43.8 12.3-26.1-17.4-43.2-47.1-43.2-80.7 0-18 4.8-34.5 13.2-48.9 47.7 58.8 119.4 97.2 199.8 101.4-1.5-7.2-2.4-14.7-2.4-22.2 0-53.4 43.2-96.9 96.9-96.9 27.9 0 53.1 11.7 70.8 30.6 21.9-4.2 42.9-12.3 61.5-23.4-7.2 22.5-22.5 41.4-42.6 53.4 19.5-2.1 38.4-7.5 55.8-15-13.2 19.2-29.7 36.3-48.6 50.1z"/></symbol><symbol viewBox="0 0 448 512" id="icon-vimeo" xmlns="http://www.w3.org/2000/svg"><path d="M447.8 153.6c-2 43.6-32.4 103.3-91.4 179.1-60.9 79.2-112.4 118.8-154.6 118.8-26.1 0-48.2-24.1-66.3-72.3C100.3 250 85.3 174.3 56.2 174.3c-3.4 0-15.1 7.1-35.2 21.1L0 168.2c51.6-45.3 100.9-95.7 131.8-98.5 34.9-3.4 56.3 20.5 64.4 71.5 28.7 181.5 41.4 208.9 93.6 126.7 18.7-29.6 28.8-52.1 30.2-67.6 4.8-45.9-35.8-42.8-63.3-31 22-72.1 64.1-107.1 126.2-105.1 45.8 1.2 67.5 31.1 64.9 89.4z"/></symbol><symbol viewBox="0 0 512 512" id="icon-youtube" xmlns="http://www.w3.org/2000/svg"><path d="M503 131.2c-6.1-28.7-29.1-48.8-55.3-52.1C405.4 74.4 341.4 72 256 72c-85.5 0-149.3 2.4-191.4 7.1-27.7 3.4-49.2 24.4-55.6 52.1-6 27.6-9 69.2-9 124.8 0 56.6 3 98.2 9 124.8 6.2 28.8 29.1 48.9 55.3 51.7 42.4 5 106.3 7.5 191.8 7.5 85.4 0 149.4-2.5 191.7-7.5 27.5-2.9 49-24.3 55.3-51.7 6-27.6 9-69.2 9-124.8-.1-56.6-3.1-98.2-9.1-124.8zM208 328V184l144 72-144 72z"/></symbol></svg>