<svg xmlns="http://www.w3.org/2000/svg" viewBox="0 0 260 50"><path fill="#020203" fill-rule="evenodd" d="M257.76 25.569c.271-.434.542-1.192.542-1.407 0-.65-.487-1.407-1.083-1.462-.865-.054-1.136-.54-1.948-.54-.703 0-.92.16-1.894 2.217-1.19 2.545-5.196 4.709-12.5 15.1-.38.54-.596.703-.92.703-.164 0-.164-.325-.164-.542 0-.162.704-2.814 1.083-3.788 1.786-4.436 3.085-7.035 3.842-8.441a25.047 25.047 0 0 1 3.463-4.87c.92-.976 1.192-1.95 1.192-2.544 0-.271-.162-.703-.272-.975-.216-.487-.92-.812-2.164-.812-.812 0-1.461.163-1.894.542-.487.432-.433.542-.866 1.19-2.38 3.627-3.625 6.223-5.25 9.958-.919 2.11-2.435 5.79-2.652 7.359-.162 1.191-.649 1.57-.649 3.248 0 .595.162 1.298.38 1.569.703.866 3.247 2.49 3.896 2.49.487 0 1.57-.11 2.002-.596.758-.812 1.19-.758 2.327-2.381 1.299-1.84 2.76-3.68 4.98-6.602.162-.217.215-.217.324-.217.107 0 .163.109.163.217 0 .161-.487 1.082-.487 4.275 0 1.353.27 2.49.918 3.355.704.974 1.354 1.19 2.112 1.894.65.595 2.38.758 2.814.758 1.028 0 1.407-.92 1.407-1.3 0-.54-.379-.92-.812-1.244-.379-.27-1.732-.974-1.894-1.948-.108-.541-.433-1.353-.433-2.327 0-1.082.325-3.789.65-4.87.811-2.76 1.84-4.817 3.787-8.01M234.492 22.7c-.866-.054-1.136-.54-1.948-.54-.704 0-.92.16-1.894 2.217-1.19 2.545-5.195 4.709-12.501 15.1-.379.54-.595.703-.92.703-.162 0-.162-.325-.162-.542 0-.162.703-2.814 1.082-3.788 1.786-4.436 3.084-7.035 3.842-8.441a25.036 25.036 0 0 1 3.464-4.87c.92-.976 1.19-1.95 1.19-2.544 0-.271-.162-.703-.27-.975-.216-.487-.92-.812-2.164-.812-.812 0-1.463.163-1.894.542-.489.432-.434.542-.866 1.19-2.382 3.627-3.627 6.223-5.25 9.958-.92 2.11-2.435 5.79-2.652 7.359-.162 1.191-.65 1.57-.65 3.248 0 .595.163 1.298.38 1.569.703.866 3.246 2.49 3.896 2.49.487 0 1.57-.11 2.002-.596.758-.812 1.192-.758 2.327-2.381 1.3-1.84 2.76-3.68 4.98-6.602.162-.217.216-.217.324-.217.108 0 .162.109.162.217 0 .161-.487 1.082-.487 4.275 0 1.353.27 2.49.92 3.355.704.974 1.353 1.19 2.11 1.894.65.595 2.382.758 2.814.758 1.029 0 1.407-.92 1.407-1.3 0-.54-.378-.92-.811-1.244-.38-.27-1.732-.974-1.894-1.948-.108-.541-.433-1.353-.433-2.327 0-1.082.325-3.789.65-4.87.81-2.76 1.84-4.817 3.787-8.01.272-.433.541-1.19.541-1.406 0-.65-.487-1.407-1.082-1.462m-39.99 16.181c-.973.92-2.218 1.515-2.65 1.515-.975 0-1.192-.811-1.192-1.462 0-1.568 1.786-4.76 4.06-7.52 3.084-3.735 7.089-6.712 12.176-9.418.703-.379 1.515-.54 1.677-.54.92 0 1.245.704 1.245 1.083 0 .324-.109.649-.27.81-.596.596-1.191 1.353-1.57 2.056-2.76 5.142-8.442 8.769-13.475 13.476m13.204.81c0-1.676.38-3.299.758-4.814 1.028-4.167 3.896-8.226 6.277-11.474.108-.161.218-.379.218-.594 0-.11 0-.163-.11-.325-.433-.65-1.244-.703-1.515-.703-.595 0-1.082-.488-1.299-1.028-.108-.326-.54-.813-.811-1.082-.974-.976-2.057-1.57-3.301-1.57-.379 0-.812.053-1.19.163-3.193.918-6.008 2.325-8.66 4.275-1.623 1.189-4.6 3.354-7.792 8.116-2.652 3.951-3.248 6.223-3.248 8.01 0 2.055.921 2.976 1.19 3.192 2.545 2.057 3.194 2.435 3.79 2.435.216 0 .54-.108.865-.216 1.894-.65 3.626-1.407 6.44-4.06l2.922-2.704c.596-.595 1.082-.974 1.3-.974.216 0 .216.054.216.27 0 .163-.216 1.083-.216 2.705 0 1.516.216 3.085.92 4.655.324.703 1.515 1.082 2.326 1.082.325 0 .704-.162 1.029-.217.92-.108 1.136-.649 1.136-.757 0-.108-.054-.215-.108-.325-.812-1.244-1.137-2.651-1.137-4.06m-20.02-13.365c0-.217-.053-.488-.216-.757-.432-.813-.542-.92-1.786-1.082-.811-.11-.542-.435-1.624-.435-1.677 0-2.38 1.407-2.597 2.004-2.002 5.52-7.251 8.55-10.985 12.878-.975 1.138-2.328 1.786-3.14 1.786-.27 0-.487-.594-.487-.865 0-1.245.541-3.302 2.327-6.765 1.353-2.651 3.68-4.762 4.655-7.413.108-.325.162-.596.162-.812 0-.11 0-.163-.216-.378-.705-.704-1.57-1.084-2.49-1.084-.811 0-1.407.217-2.11.759-.596.433-.92.866-1.137 1.407-2.381 5.952-7.306 12.068-13.15 14.99-.217.108-.434.216-.596.216-.217 0-.487-.325-.487-.595 1.677-6.386 5.195-12.447 9.146-17.967.541-.757.65-1.624.65-1.893 0-.596 0-.867-.271-1.028-.541-.325-1.082-.434-1.678-.434-1.949 0-3.084 1.191-3.3 1.785-.813 2.166-1.353 2.437-2.815 5.63-1.416 3.144-3.684 6.122-4.82 9.444-2.146 1.031-4.36 4.521-6.38 5.762-.271.162-.596.216-.92.216-.488 0-.922-.162-1.083-.65-.217-.704-.272-1.353-.272-2.001 0-2.381 1.192-4.438 2.058-6.657 3.193-8.442 8.874-15.694 13.8-23.65.323-.54.54-1.188.54-1.892 0-.542-.107-1.028-.432-1.516-.27-.379-.866-.594-1.407-.594-.595 0-1.03.107-1.786.107-2.111 0-2.436 3.031-3.356 4.6-4.112 7.035-8.928 15.693-11.256 21.754-1.19 3.086-2.327 5.575-2.327 8.064 0 .65.054 1.245.162 1.84.541 2.976 5.034 4.167 5.413 4.167 2.878 0 4.826-1.963 6.666-4.157.053.367.113.738.205 1.126.108.433.216.541.433.704 1.298.974 2.976 1.569 4.545 1.569.217 0 .541-.163.866-.325 1.84-.92 4.058-2.218 5.629-3.788.162-.162.27-.27.379-.27.162 0 .162.108.162.811 0 .812.27 1.57 2.543 2.652a6.641 6.641 0 0 0 2.76.595c4.276 0 6.602-4.168 9.363-6.224.216-.161.324-.215.432-.215.163 0 .217.161.217.325 0 1.568.757 3.625 1.353 4.815 1.136 2.273 1.948 2.977 2.543 3.086.758.161 1.245.432 2.056.432.812 0 1.3-.432 1.3-.866 0-.433-.434-.92-.757-1.082-.11-.054-.272-.163-.487-.487-1.245-1.84-1.733-3.68-1.733-5.411 0-2.707 1.136-5.467 3.789-9.904.703-1.19 1.948-1.299 1.948-2.327m-50.65-1.298c.973-1.679 1.623-2.761 1.623-4.33 0-.378-.433-.866-.812-1.027-.433-.164-1.461-.38-2.002-.38-.27 0-.758.108-1.246.27-.486.163-.756.434-1.514 1.245-3.951 4.275-7.902 8.93-12.285 15.044-.271.379-.324.434-.379.434-.108 0-.108-.055-.108-.11 0-.054.053-.16.487-1.082 4.059-8.605 8.334-19.644 13.205-26.354.433-.595.541-.865 1.028-1.461 1.407-1.732 2.543-2.597 2.543-4.004 0-.704-.108-.974-.487-1.354-.433-.432-1.028-.81-1.515-.81-.272 0-.595-.109-1.136-.109-.542 0-1.084.108-1.408.758-2.652 5.302-5.682 10.282-7.955 14.827-4.6 9.146-8.55 16.94-10.228 24.135-.217.92-.487.867-.487 1.462 0 .162.054.433.216.595.866.866 2.545 1.515 2.814 1.515.758 0 1.516-.378 2.056-.703.27-.162.326-.217.596-.541 3.193-3.735 6.927-10.012 10.608-14.233.378-.432.594-.595.703-.595.053 0 .107.054.107.108 0 .109-.054.271-.216.65-.65 1.569-1.299 3.192-2.002 5.574-.704 2.381-1.028 4.382-1.028 6.06 0 2.652.866 4.384 2.922 5.141.866.325 1.246.38 1.57.38.704 0 1.245-.271 1.893-.434.38-.107.866-.379 1.03-.756.108-.272.27-.488.27-.704 0-.163-.162-.378-.379-.434-.433-.108-1.028-.162-1.353-.324-.813-.433-1.354-.974-1.354-3.572 0-3.68 1.354-8.116 2.815-11.58.433-1.029.65-2.003 1.407-3.301m-20.29-8.768c.27-.649.378-.974.378-1.19 0-.216-.162-.487-.325-.758l-.757-1.19c-.163-.27-.38-.488-.596-.488-1.028 0-1.569-.215-1.785-.215-.272 0-1.245 1.028-1.57 1.569-.975 1.569-.703 1.515-1.3 2.489-2.76 4.491-8.603 12.771-18.561 22.729-.866.866-1.678 1.082-2.11 1.082-.163 0-.271-.162-.271-.812 0-1.245.108-2.22.216-2.977 1.137-7.846 5.412-14.99 8.66-23.215.162-.378.486-1.136.486-1.354 0-.378-.108-1.082-.27-1.406-.217-.432-.813-.65-1.245-.811-1.082-.433-1.244-.65-1.516-.65-.812 0-1.245.757-1.623 1.46-.163.325-.38.597-.596 1.192-2.272 6.277-5.086 12.392-7.088 18.724-.65 2.057-1.461 5.196-1.461 8.55 0 1.516.107 3.085.269 3.41.705 1.352 1.95.703 2.977 1.731.487.487 1.57.813 2.219.813.92 0 2.002-.434 2.49-.867 4.22-3.68 8.82-9.038 12.609-13.42.162-.163.324-.271.432-.271.163 0 .271.108.271.27 0 .217-.054.433-.162.866-.812 3.193-.866 6.873-1.3 10.607-.053.433-.107.595-.27.866-.216.378-.27.811-.27 1.136 0 .703.54.758.974 1.028.757.488 1.353.867 1.894 1.028.595.164.433.379 1.244.379.433 0 .758-.162.758-.54 0-.163-.054-.433-.054-1.624 0-7.468 1.244-14.341 3.896-21.485.867-2.273 2.49-4.383 3.356-6.656M34.71 39.098c-.433.649-.541.811-.92.974-.216.108-.487.433-1.03.433-.16 0-.323 0-.485-.109-.487-.324-1.136-1.352-1.3-1.786-.162-.38-.162-.595-.162-.758 0-6.331 5.088-13.04 6.765-15.152.27-.38.812-.648 1.028-.92.27-.324.595-.541.812-.541.216 0 .379.378.541.92.054.216.162.54.434.811.162.164.27.218.324.597.054.27.054.92.054 1.135 0 5.466-2.922 9.687-6.06 14.396M67.935 22.7c-.865-.054-1.136-.54-1.948-.54-.703 0-.92.16-1.895 2.217-1.19 2.545-5.195 4.709-12.5 15.1-.379.54-.596.703-.92.703-.163 0-.163-.325-.163-.542 0-.162.704-2.814 1.083-3.788 1.786-4.436 3.085-7.035 3.842-8.441a25.047 25.047 0 0 1 3.463-4.87c.92-.976 1.19-1.95 1.19-2.544 0-.271-.161-.703-.27-.975-.216-.487-.92-.812-2.164-.812-.812 0-1.461.163-1.894.542-.487.432-.433.542-.866 1.19a59.562 59.562 0 0 0-1.724 2.785c-.637-.325-1.597-.512-2.604-.512-1.244 0-2.489.162-4.653.162-1.57 0-2.274-1.622-2.761-2.976-.162-.432-.324-.541-.758-.92-.92-.812-2.001-1.028-2.868-1.028-2.38 0-4.654 2.544-6.385 4.98-.541.757-.541.485-1.299 1.621-2.49 3.735-4.709 7.631-4.709 12.068 0 1.354.217 2.978.813 4.493.487 1.244 2.001 2.435 4.058 3.409.325.162.812.27 1.3.27 1.893 0 3.354-1.569 4.87-3.192 3.464-3.68 5.412-8.713 6.819-14.503.108-.379.215-.434.649-.434.379 0 1.028 0 2.11-.161 1.407-.218 2.977-.758 4.059-.921l.08-.014c-.774 1.508-1.468 3.038-2.247 4.83-.92 2.111-2.435 5.792-2.651 7.36-.163 1.191-.65 1.57-.65 3.248 0 .595.163 1.298.379 1.569.703.866 3.247 2.49 3.896 2.49.487 0 1.57-.11 2.003-.596.758-.812 1.19-.758 2.327-2.381 1.299-1.84 2.76-3.68 4.979-6.602.162-.217.216-.217.324-.217.108 0 .163.109.163.217 0 .161-.487 1.082-.487 4.275 0 1.353.27 2.49.92 3.355.703.974 1.352 1.19 2.11 1.894.65.595 2.38.758 2.815.758 1.028 0 1.407-.92 1.407-1.3 0-.54-.379-.92-.812-1.244-.379-.27-1.733-.974-1.895-1.948-.108-.541-.432-1.353-.432-2.327 0-1.082.324-3.789.649-4.87.811-2.76 1.84-4.817 3.789-8.01.27-.433.54-1.19.54-1.406 0-.65-.486-1.407-1.082-1.462m-36.2-12.826c0-.27-.055-.648-1.19-1.407-1.3-.865-1.787-.973-2.004-.973-4.653 0-11.635 2.435-15.369 2.435-.433 0-.54.055-.595.433-.108.596-.379 1.244-.379 2.057 0 .757.433.432.595 1.082.109.379.325.65.812.757.541.107 1.245.163 1.948.163 1.082 0 2.166-.163 3.032-.705.323-.215.485-.323.92-.432 1.623-.378 3.625-1.029 5.627-1.408.27 0 .325 0 .325.218-3.734 8.17-4.816 10.552-8.876 22.295-1.353 3.896-1.948 5.249-3.3 7.414-1.678 2.706-2.814 3.085-4.005 3.085-.541 0-2.056-1.245-2.056-4.925 0-3.246.27-2.111.703-3.843.325-1.352 1.028-1.731 1.028-2.65 0-1.028-.974-1.949-1.894-1.949-.378 0-.865-.216-1.678-.216-.648 0-1.514 1.516-1.894 2.977C3 36.284 3 38.015 3 39.044c0 4.112 1.298 7.684 3.896 8.495C8.141 47.918 9.115 49 10.576 49c2.273 0 4.978-2.435 6.764-5.357.866-1.407 2.274-4.33 3.085-6.926 2.435-7.793 5.52-15.208 8.93-22.352.973-2.056 2.381-2.271 2.381-4.49"/></svg>